# AST/ASF file generated using VICON BodyLanguage
# -----------------------------------------------
:version 1.10
:name VICON
:units
  mass 1.0
  length 0.45
  angle deg
:documentation
   .ast/.asf automatically generated from VICON data using
   VICON BodyBuilder and BodyLanguage model FoxedUp or BRILLIANT.MOD
:root
   order TX TY TZ RX RY RZ
   axis XYZ
   position 0 0 0  
   orientation 0 0 0 
:bonedata
  begin
     id 1 
     name lhipjoint
     direction 0.528046 -0.759594 0.379717 
     length 2.39752 
     axis 0 0 0  XYZ
  end
  begin
     id 2 
     name lfemur
     direction 0.34202 -0.939693 0  
     length 7.31175  
     axis 0 0 20  XYZ
    dof rx ry rz
    limits (-160.0 20.0)
           (-70.0 70.0)
           (-60.0 70.0)
  end
  begin
     id 3 
     name ltibia
     direction 0.34202 -0.939693 0   
     length 7.52482   
     axis 0 0 20   XYZ
    dof rx
    limits (-10.0 170.0)
  end
  begin
     id 4 
     name lfoot
     direction 0.0675379 -0.185559 0.980309   
     length 2.00961   
     axis -90 7.62852e-016 20   XYZ
    dof rx rz
    limits (-45.0 90.0)
           (-70.0 20.0)
  end
  begin
     id 5 
     name ltoes
     direction 1.5352e-011 -4.22286e-011 1   
     length 1.01383   
     axis -90 7.62852e-016 20   XYZ
    dof rx
    limits (-90.0 20.0)
  end
  begin
     id 6 
     name rhipjoint
     direction -0.510274 -0.769251 0.384544   
     length 2.36742  
     axis 0 0 0  XYZ 
  end
  begin
     id 7 
     name rfemur
     direction -0.34202 -0.939693 0   
     length 7.45325   
     axis 0 0 -20   XYZ
    dof rx ry rz
    limits (-160.0 20.0)
           (-70.0 70.0)
           (-70.0 60.0)
  end
  begin
     id 8 
     name rtibia
     direction -0.34202 -0.939693 0   
     length 7.49587   
     axis 0 0 -20   XYZ
    dof rx
    limits (-10.0 170.0)
 end
 begin
     id 9 
     name rfoot
     direction -0.106475 -0.292536 0.950308   
     length 2.20898  
     axis -90 -7.62852e-016 -20   XYZ
    dof rx rz
    limits (-45.0 90.0)
           (-20.0 70.0)
  end
  begin
     id 10 
     name rtoes
     direction -1.53597e-011 -4.22023e-011 1   
     length 1.10065   
     axis -90 -7.62852e-016 -20   XYZ
    dof rx
    limits (-90.0 20.0)
  end
  begin
     id 11 
     name lowerback
     direction 0.0260024 0.998026 -0.0571652   
     length 2.11214   
     axis 0 0 0   XYZ
    dof rx ry rz
    limits (-20.0 45.0)
           (-30.0 30.0)
           (-30.0 30.0)
  end
  begin
     id 12 
     name upperback
     direction 0.0216202 0.999542 -0.0211766   
     length 2.11689   
     axis 0 0 0   XYZ
    dof rx ry rz
    limits (-20.0 45.0)
           (-30.0 30.0)
           (-30.0 30.0)
  end
  begin
     id 13 
     name thorax
     direction 0.00883312 0.999944 0.00589057   
     length 2.11821   
     axis 0 0 0   XYZ
    dof rx ry rz
    limits (-20.0 45.0)
           (-30.0 30.0)
           (-30.0 30.0)
  end
  begin
     id 14 
     name lowerneck
     direction -0.059386 0.994433 0.0870401   
     length 1.81176   
     axis 0 0 0   XYZ
    dof rx ry rz
    limits (-20.0 45.0)
           (-30.0 30.0)
           (-30.0 30.0)
  end
  begin
     id 15 
     name upperneck
     direction 0.0506457 0.97328 -0.223967   
     length 1.82382   
     axis 0 0 0   XYZ
    dof rx ry rz
    limits (-20.0 45.0)
           (-30.0 30.0)
           (-30.0 30.0)
  end
  begin
     id 16
     name head
     direction 0.0205902 0.996147 -0.0852487  
     length 1.84805  
     axis 0 0 0   XYZ
    dof rx ry rz
    limits (-20.0 45.0)
           (-30.0 30.0)
           (-30.0 30.0)
  end
  begin
     id 17 
     name lclavicle
     direction 0.949493 0.303881 -0.0782325  
     length 3.60584  
     axis 0 0 0   XYZ
    dof ry rz
    limits (-20.0 10.0)
           (0.0 20.0)
  end
  begin
     id 18 
     name lhumerus
     direction 1 -4.48965e-011 1.48782e-027   
     length 4.95681   
     axis 180 -30 -90   XYZ
    dof rx ry rz
    limits (-60.0 90.0)
           (-90.0 90.0)
           (-90.0 90.0)
  end
  begin
     id 19
     name lradius
     direction 1 -4.48952e-011 2.06528e-027   
     length 3.40915   
     axis 180 -30 -90   XYZ
    dof rx
    limits (-10.0 170.0)
  end
  begin
     id 20
     name lwrist
     direction 1 -4.48964e-011 1.28021e-027   
     length 1.70457   
     axis -1.61767e-015 90 90   XYZ
    dof ry
    limits (-180.0 0.0)
 end
  begin
     id 21 
     name lhand
     direction 1 -4.49094e-011 2.54887e-027   
     length 0.616403   
     axis -1.63363e-015 90 90   XYZ
    dof rx rz
    limits (-90.0 90.0)
           (-45.0 45.0)
  end
  begin
     id 22 
     name lfingers
     direction 1 -4.49002e-011 5.11407e-027   
     length 0.49696   
     axis -3.26723e-015 90 90   XYZ
    dof rx
    limits (0.0 90.0)
  end
  begin
     id 23
     name lthumb
     direction 0.707107 -6.34998e-011 0.707107   
     length 0.713539   
     axis -90 45 -2.25915e-014   XYZ
    dof rx rz
    limits (-45.0 45.0)
           (-45.0 45.0)
  end
  begin
     id 24 
     name rclavicle
     direction -0.937751 0.334612 -0.0930482   
     length 3.46287  
     axis 0 0 0   XYZ 
    dof ry rz
    limits (-10.0 20.0)
           (-20.0 0.0)
  end
  begin
     id 25 
     name rhumerus
     direction -1 -4.48962e-011 3.59972e-027  
     length 5.352   
     axis 180 30 90   XYZ
    dof rx ry rz
    limits (-90.0 60.0)
           (-90.0 90.0)
           (-90.0 90.0)
  end
  begin
     id 26 
     name rradius
     direction -1 -4.48987e-011 -3.76925e-027   
     length 3.43721   
     axis 180 30 90   XYZ
    dof rx
    limits (-10.0 170.0)
  end
  begin
     id 27 
     name rwrist
     direction -1 -4.48943e-011 1.28112e-027   
     length 1.7186   
     axis -1.61767e-015 -90 -90   XYZ
    dof ry
    limits (-180.0 0.0)
  end
  begin
     id 28
     name rhand
     direction -1 -4.49027e-011 2.55483e-027   
     length 0.72009   
     axis -1.63363e-015 -90 -90   XYZ
    dof rx rz
    limits (-90.0 90.0)
           (-45.0 45.0)
  end
  begin
     id 29
     name rfingers
     direction -1 -4.48827e-011 5.14506e-027   
     length 0.580555   
     axis -3.26723e-015 -90 -90   XYZ
    dof rx
    limits (0.0 90.0)
  end
  begin
     id 30
     name rthumb
     direction -0.707107 -6.34936e-011 0.707107   
     length 0.833564   
     axis -90 -45 2.25915e-014   XYZ
    dof rx rz
    limits (-45.0 45.0)
           (-45.0 45.0)
  end
:hierarchy
  begin
    root lhipjoint rhipjoint lowerback
    lhipjoint lfemur
    lfemur ltibia
    ltibia lfoot
    lfoot ltoes
    rhipjoint rfemur
    rfemur rtibia
    rtibia rfoot
    rfoot rtoes
    lowerback upperback
    upperback thorax
    thorax lowerneck lclavicle rclavicle
    lowerneck upperneck
    upperneck head
    lclavicle lhumerus
    lhumerus lradius
    lradius lwrist
    lwrist lhand lthumb
    lhand lfingers
    rclavicle rhumerus
    rhumerus rradius
    rradius rwrist
    rwrist rhand rthumb
    rhand rfingers
  end

#!OML:ASF H:\Terrain\Patient Classification 1\Terrain2\Thursday\justin.ASF
:FULLY-SPECIFIED
:DEGREES
935
root 10.1988 17.4164 -21.0075 445.939 -86.7042 275.746
lowerback -0.0340926 0.564956 2.22137
upperback 1.30353 0.643946 3.25692
thorax 1.34415 0.303477 2.10366
lowerneck -12.9302 0.266052 -8.42009
upperneck 38.8391 0.743393 1.23585
head 15.9451 -1.33505 2.00053
rclavicle 1.83876e-015 1.82882e-014
rhumerus -32.9594 -13.0547 -76.2647
rradius 25.7082
rwrist -9.41655
rhand -21.1595 12.311
rfingers 7.12502
rthumb 5.2203 -17.6047
lclavicle 1.83876e-015 1.82882e-014
lhumerus -37.8503 6.77575 84.7211
lradius 26.9535
lwrist -0.27321
lhand -16.2876 21.7175
lfingers 7.12502
lthumb 9.92266 51.4636
rfemur -9.735 -5.74015 26.9532
rtibia 29.1049
rfoot -17.777 1.31622
rtoes 19.8073
lfemur -9.73264 2.04959 -16.7735
ltibia 29.1012
lfoot -14.1842 -15.2564
ltoes 24.5615
936
root 10.1723 17.4149 -21.0175 446.35 -86.5723 275.321
lowerback -0.0131407 0.573509 2.20822
upperback 1.33193 0.649972 3.39012
thorax 1.35998 0.303954 2.24842
lowerneck -12.9396 0.258993 -8.73767
upperneck 38.8464 0.737506 1.47656
head 15.9487 -1.35084 2.16111
rclavicle 7.20594e-015 5.32743e-014
rhumerus -32.8811 -12.9264 -76.1112
rradius 25.7073
rwrist -9.33187
rhand -21.0946 11.9976
rfingers 7.12502
rthumb 5.28299 -17.9166
lclavicle 7.20594e-015 5.32743e-014
lhumerus -38.0058 7.12688 84.833
lradius 26.7474
lwrist -0.755184
lhand -16.4014 21.7641
lfingers 7.12502
lthumb 9.81293 51.5155
rfemur -9.65161 -5.63236 27.1208
rtibia 29.226
rfoot -17.9184 1.28219
rtoes 20.5351
lfemur -9.48135 0.965616 -16.6725
ltibia 28.9348
lfoot -14.6332 -14.3181
ltoes 24.2429
937
root 10.1479 17.4194 -21.0307 447.849 -86.2927 273.896
lowerback 0.0171037 0.652592 2.46237
upperback 1.30189 0.753711 3.42142
thorax 1.31301 0.357408 2.13875
lowerneck -12.8336 0.271434 -8.5967
upperneck 38.7734 0.654598 1.60955
head 15.8862 -1.34071 2.17964
rclavicle 1.73937e-014 3.18055e-014
rhumerus -32.9539 -13.1531 -76.1133
rradius 25.7943
rwrist -9.23493
rhand -21.24 11.7471
rfingers 7.12502
rthumb 5.14259 -18.1705
lclavicle 1.73937e-014 3.18055e-014
lhumerus -38.2204 7.24154 84.7514
lradius 26.6485
lwrist -1.22479
lhand -15.864 21.5911
lfingers 7.12502
lthumb 10.3314 51.3173
rfemur -9.66677 -5.33839 27.4732
rtibia 29.3552
rfoot -17.9951 1.49087
rtoes 22.5611
lfemur -9.38046 0.586407 -16.306
ltibia 28.7349
lfoot -14.4242 -14.1666
ltoes 26.0189
938
root 10.121 17.4298 -21.0457 449.187 -86.4189 272.712
lowerback -0.0599235 0.717783 2.4291
upperback 1.25177 0.847466 3.2291
thorax 1.30502 0.40753 1.96085
lowerneck -12.7636 0.282231 -8.31641
upperneck 38.7691 0.54404 1.69504
head 15.8699 -1.33355 2.14871
rclavicle -1.68967e-015 7.15625e-015
rhumerus -33.0601 -13.3927 -76.2984
rradius 25.9335
rwrist -9.12746
rhand -21.1865 11.4888
rfingers 7.12502
rthumb 5.19425 -18.4275
lclavicle -1.68967e-015 7.15625e-015
lhumerus -38.3793 7.42976 84.416
lradius 26.3492
lwrist -1.91586
lhand -15.0968 21.0069
lfingers 7.12502
lthumb 11.0714 50.6949
rfemur -9.74116 -5.09367 27.3853
rtibia 29.4353
rfoot -17.9291 1.62053
rtoes 23.9052
lfemur -9.34021 0.471027 -16.4105
ltibia 28.5518
lfoot -14.5048 -13.885
ltoes 25.0745
939
root 10.093 17.4263 -21.0596 449.774 -86.6245 272.278
lowerback -0.235892 0.67615 2.19683
upperback 1.27272 0.791236 3.10618
thorax 1.42436 0.379957 1.96632
lowerneck -12.9215 0.256761 -8.32498
upperneck 38.8881 0.484704 1.7805
head 15.9725 -1.35497 2.17978
rclavicle 1.4561e-014 3.26007e-014
rhumerus -32.8976 -13.4443 -76.4648
rradius 25.9515
rwrist -9.04305
rhand -20.9814 11.5823
rfingers 7.12502
rthumb 5.39235 -18.3291
lclavicle 1.4561e-014 3.26007e-014
lhumerus -38.3108 8.19069 83.9917
lradius 25.7461
lwrist -2.81199
lhand -14.8537 20.4525
lfingers 7.12502
lthumb 11.3059 50.1278
rfemur -9.85155 -5.02412 27.2313
rtibia 29.5159
rfoot -18.0478 1.46419
rtoes 22.7738
lfemur -9.28584 0.231542 -16.6402
ltibia 28.4137
lfoot -14.8028 -13.1715
ltoes 22.6296
940
root 10.0675 17.4181 -21.0699 450.263 -86.7284 271.956
lowerback -0.386734 0.58712 1.98676
upperback 1.29454 0.667868 3.12919
thorax 1.53084 0.316166 2.10798
lowerneck -13.1724 0.242044 -8.75728
upperneck 39.0476 0.527129 2.0077
head 16.1132 -1.37945 2.36652
rclavicle 2.13694e-015 1.03368e-014
rhumerus -32.6538 -13.2696 -76.5089
rradius 25.9213
rwrist -9.05955
rhand -20.9329 11.8902
rfingers 7.12502
rthumb 5.43912 -18.02
lclavicle 2.13694e-015 1.03368e-014
lhumerus -38.3558 8.49657 84.0287
lradius 25.5445
lwrist -2.8791
lhand -15.0484 20.5787
lfingers 7.12502
lthumb 11.1181 50.2642
rfemur -9.97782 -4.86611 27.1645
rtibia 29.5346
rfoot -18.267 1.44911
rtoes 23.2063
lfemur -9.35182 0.27623 -16.7202
ltibia 28.3893
lfoot -14.9228 -12.9618
ltoes 21.8444
941
root 10.0421 17.418 -21.0775 451.223 -86.7155 271.086
lowerback -0.422401 0.596655 1.98598
upperback 1.27912 0.677695 3.18637
thorax 1.53422 0.320155 2.16778
lowerneck -13.0867 0.234735 -9.1035
upperneck 39.0012 0.536549 2.20113
head 16.0662 -1.39802 2.51307
rclavicle 9.14409e-015 7.95139e-015
rhumerus -32.6543 -13.2341 -76.3701
rradius 25.9729
rwrist -9.03139
rhand -20.8887 11.9712
rfingers 7.12502
rthumb 5.48186 -17.9379
lclavicle 9.14409e-015 7.95139e-015
lhumerus -38.6309 8.03464 84.4399
lradius 25.7635
lwrist -2.42417
lhand -14.9766 20.9544
lfingers 7.12502
lthumb 11.1873 50.6361
rfemur -9.95143 -4.70028 27.1663
rtibia 29.4608
rfoot -18.3509 1.67928
rtoes 25.6295
lfemur -9.40967 0.385995 -16.668
ltibia 28.5
lfoot -15.2343 -13.1525
ltoes 21.4015
942
root 10.016 17.4093 -21.0837 451.384 -86.5504 270.932
lowerback -0.41276 0.617932 2.18379
upperback 1.29734 0.699957 3.23909
thorax 1.54905 0.332246 2.11165
lowerneck -12.995 0.273825 -8.79269
upperneck 38.9713 0.57893 1.96739
head 16.0269 -1.36523 2.36117
rclavicle -2.93207e-015 -2.46493e-014
rhumerus -32.66 -13.3404 -76.2566
rradius 25.9924
rwrist -8.8742
rhand -20.871 12.0372
rfingers 7.12502
rthumb 5.49886 -17.8715
lclavicle -2.93207e-015 -2.46493e-014
lhumerus -38.8342 7.76665 84.6867
lradius 25.824
lwrist -2.20383
lhand -14.8737 21.13
lfingers 7.12502
lthumb 11.2866 50.8064
rfemur -9.84383 -4.90355 27.3367
rtibia 29.3907
rfoot -18.4151 1.88094
rtoes 25.7791
lfemur -9.37646 0.304718 -16.4705
ltibia 28.6247
lfoot -15.5376 -13.1377
ltoes 20.7761
943
root 9.98897 17.3993 -21.0948 452.534 -86.4966 269.848
lowerback -0.489317 0.640292 2.19131
upperback 1.31263 0.724218 3.27455
thorax 1.607 0.34396 2.14556
lowerneck -13.1871 0.266204 -8.7233
upperneck 39.1784 0.586156 1.89216
head 16.1831 -1.37472 2.32083
rclavicle 2.48481e-016 1.11319e-014
rhumerus -32.6224 -13.2188 -76.2624
rradius 26.0565
rwrist -8.7922
rhand -20.798 12.2097
rfingers 7.12502
rthumb 5.56939 -17.6971
lclavicle 2.48481e-016 1.11319e-014
lhumerus -38.968 7.59137 84.9401
lradius 25.8149
lwrist -1.93988
lhand -14.9501 21.3175
lfingers 7.12502
lthumb 11.2129 50.9979
rfemur -9.82389 -4.93414 27.4342
rtibia 29.3703
rfoot -18.5168 2.00011
rtoes 25.5017
lfemur -9.35405 0.143883 -16.3806
ltibia 28.6997
lfoot -15.662 -12.7443
ltoes 20.7151
944
root 9.96048 17.3953 -21.1126 455.572 -86.5897 266.916
lowerback -0.579452 0.715912 1.99195
upperback 1.28991 0.826766 3.26541
thorax 1.62919 0.393555 2.25091
lowerneck -13.3205 0.179551 -9.16205
upperneck 39.3861 0.467859 2.20635
head 16.333 -1.45937 2.52119
rclavicle -8.59744e-015 -2.46493e-014
rhumerus -32.7244 -12.8977 -76.383
rradius 26.3304
rwrist -9.26613
rhand -20.7722 12.2717
rfingers 7.12502
rthumb 5.59425 -17.6345
lclavicle -8.59744e-015 -2.46493e-014
lhumerus -39.1063 7.49326 85.1276
lradius 25.8252
lwrist -1.85494
lhand -14.6151 21.3065
lfingers 7.12502
lthumb 11.536 50.969
rfemur -9.82406 -4.61482 27.3894
rtibia 29.3902
rfoot -18.6289 2.05782
rtoes 26.3948
lfemur -9.34744 0.322279 -16.4271
ltibia 28.7473
lfoot -15.8481 -12.5433
ltoes 20.5648
945
root 9.93396 17.3929 -21.1271 457.096 -86.7232 265.498
lowerback -0.585246 0.659256 1.7559
upperback 1.24955 0.758132 3.24829
thorax 1.58953 0.357275 2.364
lowerneck -13.2836 0.23613 -9.24909
upperneck 39.3298 0.571366 2.22216
head 16.2856 -1.42518 2.55955
rclavicle -1.19768e-014 -1.35174e-014
rhumerus -32.7064 -12.4512 -76.6416
rradius 26.5333
rwrist -9.95886
rhand -21.1638 12.2897
rfingers 7.12502
rthumb 5.21622 -17.6261
lclavicle -1.19768e-014 -1.35174e-014
lhumerus -39.2561 7.84905 85.0099
lradius 25.8036
lwrist -1.9257
lhand -14.0699 21.3975
lfingers 7.12502
lthumb 12.0617 51.0299
rfemur -9.87559 -4.58779 27.2571
rtibia 29.4779
rfoot -18.7304 2.2639
rtoes 27.2073
lfemur -9.37899 0.629081 -16.5234
ltibia 28.7659
lfoot -16.0296 -12.8657
ltoes 20.5261
946
root 9.90953 17.3951 -21.1349 456.907 -86.7738 265.81
lowerback -0.607865 0.523382 1.68348
upperback 1.23738 0.576299 3.28705
thorax 1.59374 0.264975 2.44127
lowerneck -13.1603 0.372058 -9.06853
upperneck 39.0195 0.879672 1.83523
head 16.0748 -1.30435 2.40301
rclavicle -2.88238e-015 -3.18055e-015
rhumerus -32.4683 -12.0775 -76.8322
rradius 26.5721
rwrist -10.3175
rhand -21.6127 12.2296
rfingers 7.12502
rthumb 4.78278 -17.6964
lclavicle -2.88238e-015 -3.18055e-015
lhumerus -39.3754 7.93492 85.0768
lradius 25.8635
lwrist -1.47849
lhand -13.9421 21.5595
lfingers 7.12502
lthumb 12.185 51.1846
rfemur -9.97781 -4.91135 27.2038
rtibia 29.5562
rfoot -18.7941 2.52406
rtoes 27.0216
lfemur -9.45739 0.899147 -16.5237
ltibia 28.7989
lfoot -16.0554 -13.3595
ltoes 21.1052
947
root 9.88577 17.3985 -21.1476 456.784 -86.3709 265.991
lowerback -0.649562 0.548971 2.12377
upperback 1.26101 0.594106 3.39744
thorax 1.64492 0.276231 2.30906
lowerneck -12.9786 0.426795 -8.87164
upperneck 38.8454 0.978914 1.60161
head 15.9367 -1.25522 2.27879
rclavicle 7.45443e-016 1.59028e-014
rhumerus -32.3646 -12.0624 -76.8691
rradius 26.6874
rwrist -10.4812
rhand -21.634 12.0536
rfingers 7.12502
rthumb 4.76222 -17.8729
lclavicle 7.45443e-016 1.59028e-014
lhumerus -39.4883 7.57313 85.3329
lradius 26.0011
lwrist -1.04954
lhand -14.2325 21.4019
lfingers 7.12502
lthumb 11.9049 51.0434
rfemur -9.94806 -4.91184 27.6979
rtibia 29.6047
rfoot -18.8338 2.58221
rtoes 27.5699
lfemur -9.53521 2.00616 -15.9071
ltibia 28.9056
lfoot -15.7551 -14.5889
ltoes 22.5278
